<svg width="120" height="106" viewBox="0 0 120 106" fill="none" xmlns="http://www.w3.org/2000/svg">
<g clip-path="url(#clip0)">
<path d="M57.0187 29.7773C57.6612 28.7494 58.7878 28.125 60 28.125C61.2122 28.125 62.3388 28.7494 62.9813 29.7773C66.0035 34.6132 71.2123 37.5 76.9148 37.5H79.9219V29.2969C79.9219 20.8966 73.0877 14.0625 64.6875 14.0625H55.3125C46.9123 14.0625 40.0781 20.8966 40.0781 29.2969V37.5H43.0852C48.7877 37.5 53.9965 34.6132 57.0187 29.7773Z" fill="#B5179E"/>
<path d="M51.7969 80.7534V87.8906C51.7969 92.4211 55.4695 96.0937 60 96.0937C64.5305 96.0937 68.2031 92.4211 68.2031 87.8906V80.7532C65.6154 81.5819 62.8591 82.0312 60 82.0312C57.1406 82.0312 54.3846 81.5822 51.7969 80.7534Z" fill="#B5179E"/>
<path d="M63.5156 64.4531C63.5156 62.5115 65.0897 60.9374 67.0312 60.9374H79.0409C79.6125 59.0838 79.9216 57.116 79.9216 55.0769V44.5312H76.9146C70.4184 44.5312 64.3711 41.9078 59.9998 37.3403C55.6287 41.9078 49.5813 44.5312 43.0852 44.5312H40.0781V55.0781C40.0781 66.063 49.0151 74.9999 60 74.9999C66.0717 74.9999 71.5139 72.2662 75.1709 67.9687H67.0312C65.0897 67.9687 63.5156 66.3946 63.5156 64.4531Z" fill="#B5179E"/>
<path d="M81.0938 84.375H75.2344V87.8906C75.2344 96.2909 68.4002 103.125 60 103.125C51.5998 103.125 44.7656 96.2909 44.7656 87.8906V84.375H38.9062C27.9213 84.375 18.9844 93.312 18.9844 104.297V116.484C18.9844 118.426 20.5584 120 22.5 120H33.2812V111.328C33.2812 109.387 34.8553 107.812 36.7969 107.812C38.7384 107.812 40.3125 109.387 40.3125 111.328V120H79.9219V111.328C79.9219 109.387 81.4959 107.812 83.4375 107.812C85.3791 107.812 86.9531 109.387 86.9531 111.328V120H97.5C99.4416 120 101.016 118.426 101.016 116.484V104.297C101.016 93.312 92.0787 84.375 81.0938 84.375Z" fill="#B5179E"/>
<path d="M28.3594 56.25H33.0469V37.5H30.7031V36.3281C30.7031 20.1738 43.8457 7.03125 60 7.03125C76.1543 7.03125 89.2969 20.1738 89.2969 36.3281V37.5H86.9531V59.7656C86.9531 60.4118 86.4274 60.9375 85.7812 60.9375H79.0409C78.2348 63.551 76.9022 65.9341 75.1709 67.9688H85.7812C90.3045 67.9688 93.9844 64.2888 93.9844 59.7656V55.6177C95.3841 54.807 96.3281 53.2964 96.3281 51.5625V36.3281C96.3281 16.2966 80.0313 0 60 0C39.9687 0 23.6719 16.2966 23.6719 36.3281V51.5625C23.6719 54.1514 25.7705 56.25 28.3594 56.25Z" fill="#B5179E"/>
</g>
<defs>
<clipPath id="clip0">
<rect width="120" height="106" fill="white"/>
</clipPath>
</defs>
</svg>
