<svg width="22" height="26" viewBox="0 0 22 26" fill="none" xmlns="http://www.w3.org/2000/svg">
<path fill-rule="evenodd" clip-rule="evenodd" d="M12.8369 23.6945C17.0888 19.5507 21.373 15.3753 21.373 10.3729C21.373 4.6441 16.7289 0 11.0001 0C5.27129 0 0.627197 4.6441 0.627197 10.3729C0.627197 15.9956 5.62331 20.5734 10.7119 25.236C10.808 25.3239 10.904 25.4119 11.0001 25.5C11.6029 24.8972 12.2195 24.2962 12.8369 23.6945ZM11.0001 15.5593C13.8645 15.5593 16.1865 13.2373 16.1865 10.3729C16.1865 7.50849 13.8645 5.18644 11.0001 5.18644C8.13569 5.18644 5.81364 7.50849 5.81364 10.3729C5.81364 13.2373 8.13569 15.5593 11.0001 15.5593Z" fill="white"/>
</svg>
