<svg width="120" height="120" viewBox="0 0 120 120" fill="none" xmlns="http://www.w3.org/2000/svg">
<path fill-rule="evenodd" clip-rule="evenodd" d="M85.5469 25.0818C95.9509 27.496 99.9307 33.5797 104.92 41.9531H85.5469V25.0818ZM24.7449 42.6562C26.7819 42.6562 28.2605 43.6395 28.2605 45.9375C28.2605 47.8757 26.6922 49.4476 24.7549 49.4531H3.51562C1.57379 49.4531 0 51.0278 0 52.9688C0 54.9106 1.57379 56.4844 3.51562 56.4844H35.1562C37.1164 56.4844 38.6856 58.0573 38.6856 60C38.6856 61.9418 37.1118 63.5156 35.17 63.5156H3.51562C1.57379 63.5156 0 65.0894 0 67.0312C0 68.9731 1.57379 70.5469 3.51562 70.5469H11.25V81.0938C11.25 83.0356 12.8238 84.6094 14.7656 84.6094H21.8326C23.0923 90.8148 28.5754 95.3906 35.0391 95.3906C41.5027 95.3906 46.9858 90.8148 48.2455 84.6094H83.942C85.2017 90.8148 90.6848 95.3906 97.1484 95.3906C103.612 95.3906 109.095 90.8148 110.355 84.6094H116.484C118.426 84.6094 120 83.0356 120 81.0938V60C120 49.6848 109.12 48.9999 109.11 48.9844H82.0312C80.0894 48.9844 78.5156 47.4106 78.5156 45.4688V24.375H14.7656C12.8238 24.375 11.25 25.9488 11.25 27.8906V35.625H7.03125C5.08942 35.625 3.51562 37.1988 3.51562 39.1406C3.51562 41.0825 5.08942 42.6562 7.03125 42.6562H24.7449ZM101.706 77.3566C104.223 79.8734 104.223 83.9557 101.706 86.4725C97.6575 90.5209 90.7031 87.6407 90.7031 81.9141C90.7031 76.1884 97.6575 73.3081 101.706 77.3566ZM39.5966 77.3566C42.1133 79.8734 42.1133 83.9557 39.5966 86.4725C35.5481 90.5209 28.5938 87.6407 28.5938 81.9141C28.5938 76.1884 35.5481 73.3081 39.5966 77.3566Z" fill="#B5179E"/>
</svg>
