<svg width="212" height="48" viewBox="0 0 212 48" fill="none" xmlns="http://www.w3.org/2000/svg">
<path d="M99.3851 1L99.655 0.0371173L99.5226 0H99.3851V1ZM3.54947 2C4.10175 2 4.54947 1.55228 4.54947 1C4.54947 0.447715 4.10175 0 3.54947 0V2ZM10.6484 0C10.0961 0 9.6484 0.447715 9.6484 1C9.6484 1.55228 10.0961 2 10.6484 2V0ZM17.7473 2C18.2996 2 18.7473 1.55228 18.7473 1C18.7473 0.447715 18.2996 0 17.7473 0V2ZM24.8463 0C24.294 0 23.8463 0.447715 23.8463 1C23.8463 1.55228 24.294 2 24.8463 2V0ZM31.9452 2C32.4975 2 32.9452 1.55228 32.9452 1C32.9452 0.447715 32.4975 0 31.9452 0V2ZM39.0442 0C38.4919 0 38.0442 0.447715 38.0442 1C38.0442 1.55228 38.4919 2 39.0442 2V0ZM46.1431 2C46.6954 2 47.1431 1.55228 47.1431 1C47.1431 0.447715 46.6954 0 46.1431 0V2ZM53.242 0C52.6897 0 52.242 0.447715 52.242 1C52.242 1.55228 52.6897 2 53.242 2V0ZM60.341 2C60.8933 2 61.341 1.55228 61.341 1C61.341 0.447715 60.8933 0 60.341 0V2ZM67.4399 0C66.8876 0 66.4399 0.447715 66.4399 1C66.4399 1.55228 66.8876 2 67.4399 2V0ZM74.5388 2C75.0911 2 75.5388 1.55228 75.5388 1C75.5388 0.447715 75.0911 0 74.5388 0V2ZM81.6378 0C81.0855 0 80.6378 0.447715 80.6378 1C80.6378 1.55228 81.0855 2 81.6378 2V0ZM88.7367 2C89.289 2 89.7367 1.55228 89.7367 1C89.7367 0.447715 89.289 0 88.7367 0V2ZM95.8357 0C95.2834 0 94.8357 0.447715 94.8357 1C94.8357 1.55228 95.2834 2 95.8357 2V0ZM102.682 2.96288C103.214 3.11196 103.766 2.80171 103.915 2.26992C104.064 1.73813 103.754 1.18619 103.222 1.03712L102.682 2.96288ZM110.357 3.03712C109.825 2.88804 109.273 3.19829 109.124 3.73008C108.975 4.26187 109.285 4.81381 109.817 4.96288L110.357 3.03712ZM116.952 6.96288C117.483 7.11196 118.035 6.80171 118.184 6.26992C118.334 5.73813 118.023 5.18619 117.491 5.03712L116.952 6.96288ZM124.626 7.03712C124.094 6.88804 123.542 7.19829 123.393 7.73008C123.244 8.26186 123.554 8.81381 124.086 8.96288L124.626 7.03712ZM131.221 10.9629C131.753 11.112 132.305 10.8017 132.454 10.2699C132.603 9.73813 132.292 9.18619 131.761 9.03712L131.221 10.9629ZM138.895 11.0371C138.363 10.888 137.811 11.1983 137.662 11.7301C137.513 12.2619 137.824 12.8138 138.355 12.9629L138.895 11.0371ZM145.49 14.9629C146.022 15.112 146.574 14.8017 146.723 14.2699C146.872 13.7381 146.562 13.1862 146.03 13.0371L145.49 14.9629ZM153.164 15.0371C152.633 14.888 152.081 15.1983 151.932 15.7301C151.782 16.2619 152.093 16.8138 152.625 16.9629L153.164 15.0371ZM159.759 18.9629C160.291 19.112 160.843 18.8017 160.992 18.2699C161.141 17.7381 160.831 17.1862 160.299 17.0371L159.759 18.9629ZM167.433 19.0371C166.902 18.888 166.35 19.1983 166.201 19.7301C166.052 20.2619 166.362 20.8138 166.894 20.9629L167.433 19.0371ZM174.028 22.9629C174.56 23.112 175.112 22.8017 175.261 22.2699C175.41 21.7381 175.1 21.1862 174.568 21.0371L174.028 22.9629ZM181.703 23.0371C181.171 22.888 180.619 23.1983 180.47 23.7301C180.321 24.2619 180.631 24.8138 181.163 24.9629L181.703 23.0371ZM0 2H3.54947V0H0V2ZM10.6484 2H17.7473V0H10.6484V2ZM24.8463 2H31.9452V0H24.8463V2ZM39.0442 2H46.1431V0H39.0442V2ZM53.242 2H60.341V0H53.242V2ZM67.4399 2H74.5388V0H67.4399V2ZM81.6378 2H88.7367V0H81.6378V2ZM95.8357 2H99.3851V0H95.8357V2ZM99.1152 1.96288L102.682 2.96288L103.222 1.03712L99.655 0.0371173L99.1152 1.96288ZM109.817 4.96288L116.952 6.96288L117.491 5.03712L110.357 3.03712L109.817 4.96288ZM124.086 8.96288L131.221 10.9629L131.761 9.03712L124.626 7.03712L124.086 8.96288ZM138.355 12.9629L145.49 14.9629L146.03 13.0371L138.895 11.0371L138.355 12.9629ZM152.625 16.9629L159.759 18.9629L160.299 17.0371L153.164 15.0371L152.625 16.9629ZM166.894 20.9629L174.028 22.9629L174.568 21.0371L167.433 19.0371L166.894 20.9629ZM181.163 24.9629L184.73 25.9629L185.27 24.0371L181.703 23.0371L181.163 24.9629Z" fill="#D2D2D2"/>
<circle cx="192" cy="28" r="20" fill="white" fill-opacity="0.4"/>
<circle cx="192" cy="28" r="10" fill="white"/>
</svg>
