<svg width="194" height="171" viewBox="0 0 194 171" fill="none" xmlns="http://www.w3.org/2000/svg">
<path d="M89.7152 1L90.5977 0.529642L90.3154 0H89.7152V1ZM3.73813 2C4.29042 2 4.73813 1.55228 4.73813 1C4.73813 0.447715 4.29042 0 3.73813 0V2ZM11.2144 0C10.6621 0 10.2144 0.447715 10.2144 1C10.2144 1.55228 10.6621 2 11.2144 2V0ZM18.6907 2C19.243 2 19.6907 1.55228 19.6907 1C19.6907 0.447715 19.243 0 18.6907 0V2ZM26.1669 0C25.6147 0 25.1669 0.447715 25.1669 1C25.1669 1.55228 25.6147 2 26.1669 2V0ZM33.6432 2C34.1955 2 34.6432 1.55228 34.6432 1C34.6432 0.447715 34.1955 0 33.6432 0V2ZM41.1195 0C40.5672 0 40.1195 0.447715 40.1195 1C40.1195 1.55228 40.5672 2 41.1195 2V0ZM48.5957 2C49.148 2 49.5957 1.55228 49.5957 1C49.5957 0.447715 49.148 0 48.5957 0V2ZM56.072 0C55.5197 0 55.072 0.447715 55.072 1C55.072 1.55228 55.5197 2 56.072 2V0ZM63.5483 2C64.1006 2 64.5483 1.55228 64.5483 1C64.5483 0.447715 64.1006 0 63.5483 0V2ZM71.0245 0C70.4723 0 70.0245 0.447715 70.0245 1C70.0245 1.55228 70.4723 2 71.0245 2V0ZM78.5008 2C79.0531 2 79.5008 1.55228 79.5008 1C79.5008 0.447715 79.0531 0 78.5008 0V2ZM85.9771 0C85.4248 0 84.9771 0.447715 84.9771 1C84.9771 1.55228 85.4248 2 85.9771 2V0ZM90.4428 4.49119C90.7026 4.97857 91.3083 5.16308 91.7957 4.90331C92.283 4.64354 92.4676 4.03785 92.2078 3.55048L90.4428 4.49119ZM95.428 9.59214C95.1682 9.10476 94.5625 8.92025 94.0752 9.18002C93.5878 9.4398 93.4033 10.0455 93.663 10.5329L95.428 9.59214ZM96.8832 16.5745C97.143 17.0619 97.7487 17.2464 98.2361 16.9866C98.7234 16.7269 98.908 16.1212 98.6482 15.6338L96.8832 16.5745ZM101.868 21.6755C101.609 21.1881 101.003 21.0036 100.516 21.2634C100.028 21.5231 99.8437 22.1288 100.103 22.6162L101.868 21.6755ZM103.324 28.6579C103.583 29.1452 104.189 29.3297 104.676 29.07C105.164 28.8102 105.348 28.2045 105.089 27.7171L103.324 28.6579ZM108.309 33.7588C108.049 33.2714 107.443 33.0869 106.956 33.3467C106.469 33.6065 106.284 34.2121 106.544 34.6995L108.309 33.7588ZM109.764 40.7412C110.024 41.2286 110.629 41.4131 111.117 41.1533C111.604 40.8935 111.789 40.2879 111.529 39.8005L109.764 40.7412ZM114.749 45.8421C114.489 45.3548 113.884 45.1703 113.396 45.43C112.909 45.6898 112.724 46.2955 112.984 46.7829L114.749 45.8421ZM116.204 52.8245C116.464 53.3119 117.07 53.4964 117.557 53.2366C118.045 52.9769 118.229 52.3712 117.969 51.8838L116.204 52.8245ZM121.19 57.9255C120.93 57.4381 120.324 57.2536 119.837 57.5134C119.349 57.7731 119.165 58.3788 119.425 58.8662L121.19 57.9255ZM122.645 64.9079C122.905 65.3952 123.51 65.5797 123.998 65.32C124.485 65.0602 124.67 64.4545 124.41 63.9671L122.645 64.9079ZM127.63 70.0088C127.37 69.5214 126.765 69.3369 126.277 69.5967C125.79 69.8565 125.605 70.4621 125.865 70.9495L127.63 70.0088ZM129.085 76.9912C129.345 77.4786 129.951 77.6631 130.438 77.4033C130.925 77.1435 131.11 76.5378 130.85 76.0505L129.085 76.9912ZM134.07 82.0921C133.811 81.6048 133.205 81.4202 132.718 81.68C132.23 81.9398 132.046 82.5455 132.305 83.0328L134.07 82.0921ZM135.526 89.0745C135.785 89.5619 136.391 89.7464 136.878 89.4866C137.366 89.2269 137.55 88.6212 137.291 88.1338L135.526 89.0745ZM140.511 94.1755C140.251 93.6881 139.645 93.5036 139.158 93.7633C138.671 94.0231 138.486 94.6288 138.746 95.1162L140.511 94.1755ZM141.966 101.158C142.226 101.645 142.831 101.83 143.319 101.57C143.806 101.31 143.991 100.705 143.731 100.217L141.966 101.158ZM146.951 106.259C146.691 105.771 146.086 105.587 145.598 105.847C145.111 106.106 144.926 106.712 145.186 107.2L146.951 106.259ZM148.406 113.241C148.666 113.729 149.272 113.913 149.759 113.653C150.247 113.394 150.431 112.788 150.171 112.3L148.406 113.241ZM153.392 118.342C153.132 117.855 152.526 117.67 152.039 117.93C151.551 118.19 151.367 118.795 151.627 119.283L153.392 118.342ZM154.847 125.325C155.107 125.812 155.712 125.996 156.2 125.737C156.687 125.477 156.872 124.871 156.612 124.384L154.847 125.325ZM159.832 130.425C159.572 129.938 158.967 129.754 158.479 130.013C157.992 130.273 157.807 130.879 158.067 131.366L159.832 130.425ZM161.287 137.408C161.547 137.895 162.153 138.08 162.64 137.82C163.127 137.56 163.312 136.954 163.052 136.467L161.287 137.408ZM166.272 142.509C166.013 142.021 165.407 141.837 164.92 142.097C164.432 142.356 164.248 142.962 164.507 143.449L166.272 142.509ZM0 2H3.73813V0H0V2ZM11.2144 2H18.6907V0H11.2144V2ZM26.1669 2H33.6432V0H26.1669V2ZM41.1195 2H48.5957V0H41.1195V2ZM56.072 2H63.5483V0H56.072V2ZM71.0245 2H78.5008V0H71.0245V2ZM85.9771 2H89.7152V0H85.9771V2ZM88.8327 1.47036L90.4428 4.49119L92.2078 3.55048L90.5977 0.529642L88.8327 1.47036ZM93.663 10.5329L96.8832 16.5745L98.6482 15.6338L95.428 9.59214L93.663 10.5329ZM100.103 22.6162L103.324 28.6579L105.089 27.7171L101.868 21.6755L100.103 22.6162ZM106.544 34.6995L109.764 40.7412L111.529 39.8005L108.309 33.7588L106.544 34.6995ZM112.984 46.7829L116.204 52.8245L117.969 51.8838L114.749 45.8421L112.984 46.7829ZM119.425 58.8662L122.645 64.9079L124.41 63.9671L121.19 57.9255L119.425 58.8662ZM125.865 70.9495L129.085 76.9912L130.85 76.0505L127.63 70.0088L125.865 70.9495ZM132.305 83.0328L135.526 89.0745L137.291 88.1338L134.07 82.0921L132.305 83.0328ZM138.746 95.1162L141.966 101.158L143.731 100.217L140.511 94.1755L138.746 95.1162ZM145.186 107.2L148.406 113.241L150.171 112.3L146.951 106.259L145.186 107.2ZM151.627 119.283L154.847 125.325L156.612 124.384L153.392 118.342L151.627 119.283ZM158.067 131.366L161.287 137.408L163.052 136.467L159.832 130.425L158.067 131.366ZM164.507 143.449L166.118 146.47L167.882 145.53L166.272 142.509L164.507 143.449Z" fill="#D2D2D2"/>
<circle cx="174" cy="151" r="20" fill="white" fill-opacity="0.4"/>
<circle cx="174" cy="151" r="10" fill="white"/>
</svg>
