<svg width="257" height="172" viewBox="0 0 257 172" fill="none" xmlns="http://www.w3.org/2000/svg">
<path d="M125.709 1L126.525 0.42228L126.226 0H125.709V1ZM3.49191 2C4.04419 2 4.49191 1.55228 4.49191 1C4.49191 0.447715 4.04419 0 3.49191 0V2ZM10.4757 0C9.92344 0 9.47573 0.447715 9.47573 1C9.47573 1.55228 9.92344 2 10.4757 2V0ZM17.4595 2C18.0118 2 18.4595 1.55228 18.4595 1C18.4595 0.447715 18.0118 0 17.4595 0V2ZM24.4434 0C23.8911 0 23.4434 0.447715 23.4434 1C23.4434 1.55228 23.8911 2 24.4434 2V0ZM31.4272 2C31.9795 2 32.4272 1.55228 32.4272 1C32.4272 0.447715 31.9795 0 31.4272 0V2ZM38.411 0C37.8587 0 37.411 0.447715 37.411 1C37.411 1.55228 37.8587 2 38.411 2V0ZM45.3948 2C45.9471 2 46.3948 1.55228 46.3948 1C46.3948 0.447715 45.9471 0 45.3948 0V2ZM52.3786 0C51.8264 0 51.3786 0.447715 51.3786 1C51.3786 1.55228 51.8264 2 52.3786 2V0ZM59.3625 2C59.9147 2 60.3625 1.55228 60.3625 1C60.3625 0.447715 59.9147 0 59.3625 0V2ZM66.3463 0C65.794 0 65.3463 0.447715 65.3463 1C65.3463 1.55228 65.794 2 66.3463 2V0ZM73.3301 2C73.8824 2 74.3301 1.55228 74.3301 1C74.3301 0.447715 73.8824 0 73.3301 0V2ZM80.3139 0C79.7616 0 79.3139 0.447715 79.3139 1C79.3139 1.55228 79.7616 2 80.3139 2V0ZM87.2977 2C87.85 2 88.2977 1.55228 88.2977 1C88.2977 0.447715 87.85 0 87.2977 0V2ZM94.2816 0C93.7293 0 93.2816 0.447715 93.2816 1C93.2816 1.55228 93.7293 2 94.2816 2V0ZM101.265 2C101.818 2 102.265 1.55228 102.265 1C102.265 0.447715 101.818 0 101.265 0V2ZM108.249 0C107.697 0 107.249 0.447715 107.249 1C107.249 1.55228 107.697 2 108.249 2V0ZM115.233 2C115.785 2 116.233 1.55228 116.233 1C116.233 0.447715 115.785 0 115.233 0V2ZM122.217 0C121.665 0 121.217 0.447715 121.217 1C121.217 1.55228 121.665 2 122.217 2V0ZM126.975 4.52003C127.294 4.97082 127.918 5.07761 128.369 4.75854C128.82 4.43948 128.927 3.81538 128.607 3.36459L126.975 4.52003ZM132.773 9.2492C132.453 8.79841 131.829 8.69162 131.379 9.01069C130.928 9.32975 130.821 9.95385 131.14 10.4046L132.773 9.2492ZM135.305 16.2893C135.624 16.7401 136.248 16.8468 136.699 16.5278C137.15 16.2087 137.257 15.5846 136.938 15.1338L135.305 16.2893ZM141.103 21.0184C140.784 20.5676 140.159 20.4609 139.709 20.7799C139.258 21.099 139.151 21.7231 139.47 22.1739L141.103 21.0184ZM143.635 28.0585C143.954 28.5093 144.578 28.6161 145.029 28.297C145.48 27.9779 145.587 27.3538 145.268 26.903L143.635 28.0585ZM149.433 32.7877C149.114 32.3369 148.49 32.2301 148.039 32.5492C147.588 32.8682 147.481 33.4923 147.8 33.9431L149.433 32.7877ZM151.965 39.8277C152.284 40.2785 152.908 40.3853 153.359 40.0662C153.81 39.7472 153.917 39.1231 153.598 38.6723L151.965 39.8277ZM157.763 44.5569C157.444 44.1061 156.82 43.9993 156.369 44.3184C155.918 44.6374 155.811 45.2615 156.13 45.7123L157.763 44.5569ZM160.295 51.597C160.614 52.0477 161.239 52.1545 161.689 51.8355C162.14 51.5164 162.247 50.8923 161.928 50.4415L160.295 51.597ZM166.093 56.3261C165.774 55.8753 165.15 55.7685 164.699 56.0876C164.248 56.4067 164.141 57.0308 164.46 57.4816L166.093 56.3261ZM168.626 63.3662C168.945 63.817 169.569 63.9238 170.019 63.6047C170.47 63.2856 170.577 62.6615 170.258 62.2107L168.626 63.3662ZM174.423 68.0954C174.104 67.6446 173.48 67.5378 173.029 67.8568C172.578 68.1759 172.471 68.8 172.791 69.2508L174.423 68.0954ZM176.956 75.1354C177.275 75.5862 177.899 75.693 178.35 75.3739C178.8 75.0549 178.907 74.4308 178.588 73.98L176.956 75.1354ZM182.753 79.8646C182.434 79.4138 181.81 79.307 181.359 79.6261C180.908 79.9451 180.802 80.5692 181.121 81.02L182.753 79.8646ZM185.286 86.9046C185.605 87.3554 186.229 87.4622 186.68 87.1431C187.13 86.8241 187.237 86.2 186.918 85.7492L185.286 86.9046ZM191.083 91.6338C190.764 91.183 190.14 91.0762 189.689 91.3953C189.238 91.7144 189.132 92.3385 189.451 92.7892L191.083 91.6338ZM193.616 98.6739C193.935 99.1247 194.559 99.2314 195.01 98.9124C195.461 98.5933 195.567 97.9692 195.248 97.5184L193.616 98.6739ZM199.413 103.403C199.094 102.952 198.47 102.845 198.019 103.165C197.569 103.484 197.462 104.108 197.781 104.558L199.413 103.403ZM201.946 110.443C202.265 110.894 202.889 111.001 203.34 110.682C203.791 110.363 203.897 109.738 203.578 109.288L201.946 110.443ZM207.743 115.172C207.424 114.721 206.8 114.615 206.349 114.934C205.899 115.253 205.792 115.877 206.111 116.328L207.743 115.172ZM210.276 122.212C210.595 122.663 211.219 122.77 211.67 122.451C212.121 122.132 212.228 121.508 211.908 121.057L210.276 122.212ZM216.073 126.941C215.754 126.491 215.13 126.384 214.68 126.703C214.229 127.022 214.122 127.646 214.441 128.097L216.073 126.941ZM218.606 133.982C218.925 134.432 219.549 134.539 220 134.22C220.451 133.901 220.558 133.277 220.239 132.826L218.606 133.982ZM224.404 138.711C224.085 138.26 223.46 138.153 223.01 138.472C222.559 138.791 222.452 139.415 222.771 139.866L224.404 138.711ZM226.936 145.751C227.255 146.202 227.879 146.308 228.33 145.989C228.781 145.67 228.888 145.046 228.569 144.595L226.936 145.751ZM232.734 150.48C232.415 150.029 231.791 149.922 231.34 150.241C230.889 150.56 230.782 151.185 231.101 151.635L232.734 150.48ZM0 2H3.49191V0H0V2ZM10.4757 2H17.4595V0H10.4757V2ZM24.4434 2H31.4272V0H24.4434V2ZM38.411 2H45.3948V0H38.411V2ZM52.3786 2H59.3625V0H52.3786V2ZM66.3463 2H73.3301V0H66.3463V2ZM80.3139 2H87.2977V0H80.3139V2ZM94.2816 2H101.265V0H94.2816V2ZM108.249 2H115.233V0H108.249V2ZM122.217 2H125.709V0H122.217V2ZM124.893 1.57772L126.975 4.52003L128.607 3.36459L126.525 0.42228L124.893 1.57772ZM131.14 10.4046L135.305 16.2893L136.938 15.1338L132.773 9.2492L131.14 10.4046ZM139.47 22.1739L143.635 28.0585L145.268 26.903L141.103 21.0184L139.47 22.1739ZM147.8 33.9431L151.965 39.8277L153.598 38.6723L149.433 32.7877L147.8 33.9431ZM156.13 45.7123L160.295 51.597L161.928 50.4415L157.763 44.5569L156.13 45.7123ZM164.46 57.4816L168.626 63.3662L170.258 62.2107L166.093 56.3261L164.46 57.4816ZM172.791 69.2508L176.956 75.1354L178.588 73.98L174.423 68.0954L172.791 69.2508ZM181.121 81.02L185.286 86.9046L186.918 85.7492L182.753 79.8646L181.121 81.02ZM189.451 92.7892L193.616 98.6739L195.248 97.5184L191.083 91.6338L189.451 92.7892ZM197.781 104.558L201.946 110.443L203.578 109.288L199.413 103.403L197.781 104.558ZM206.111 116.328L210.276 122.212L211.908 121.057L207.743 115.172L206.111 116.328ZM214.441 128.097L218.606 133.982L220.239 132.826L216.073 126.941L214.441 128.097ZM222.771 139.866L226.936 145.751L228.569 144.595L224.404 138.711L222.771 139.866ZM231.101 151.635L233.184 154.578L234.816 153.422L232.734 150.48L231.101 151.635Z" fill="#D2D2D2"/>
<circle cx="236.5" cy="152" r="20" fill="white" fill-opacity="0.4"/>
<circle cx="236.5" cy="152" r="10" fill="white"/>
</svg>
