<svg width="189" height="96" viewBox="0 0 189 96" fill="none" xmlns="http://www.w3.org/2000/svg">
<path d="M98.0403 95L98.7857 95.6666L98.4876 96H98.0403V95ZM3.50144 94C4.05372 94 4.50144 94.4477 4.50144 95C4.50144 95.5523 4.05372 96 3.50144 96V94ZM10.5043 96C9.95203 96 9.50431 95.5523 9.50431 95C9.50431 94.4477 9.95203 94 10.5043 94V96ZM17.5072 94C18.0595 94 18.5072 94.4477 18.5072 95C18.5072 95.5523 18.0595 96 17.5072 96V94ZM24.5101 96C23.9578 96 23.5101 95.5523 23.5101 95C23.5101 94.4477 23.9578 94 24.5101 94V96ZM31.5129 94C32.0652 94 32.5129 94.4477 32.5129 95C32.5129 95.5523 32.0652 96 31.5129 96V94ZM38.5158 96C37.9635 96 37.5158 95.5523 37.5158 95C37.5158 94.4477 37.9635 94 38.5158 94V96ZM45.5187 94C46.071 94 46.5187 94.4477 46.5187 95C46.5187 95.5523 46.071 96 45.5187 96V94ZM52.5216 96C51.9693 96 51.5216 95.5523 51.5216 95C51.5216 94.4477 51.9693 94 52.5216 94V96ZM59.5244 94C60.0767 94 60.5244 94.4477 60.5244 95C60.5244 95.5523 60.0767 96 59.5244 96V94ZM66.5273 96C65.975 96 65.5273 95.5523 65.5273 95C65.5273 94.4477 65.975 94 66.5273 94V96ZM73.5302 94C74.0825 94 74.5302 94.4477 74.5302 95C74.5302 95.5523 74.0825 96 73.5302 96V94ZM80.5331 96C79.9808 96 79.5331 95.5523 79.5331 95C79.5331 94.4477 79.9808 94 80.5331 94V96ZM87.536 94C88.0882 94 88.536 94.4477 88.536 95C88.536 95.5523 88.0882 96 87.536 96V94ZM94.5388 96C93.9865 96 93.5388 95.5523 93.5388 95C93.5388 94.4477 93.9865 94 94.5388 94V96ZM99.722 91.6191C100.09 91.2074 100.722 91.1721 101.134 91.5403C101.546 91.9084 101.581 92.5406 101.213 92.9523L99.722 91.6191ZM106.067 87.5237C105.699 87.9354 105.067 87.9707 104.655 87.6026C104.243 87.2344 104.208 86.6023 104.576 86.1906L106.067 87.5237ZM109.43 80.762C109.799 80.3503 110.431 80.315 110.843 80.6831C111.254 81.0513 111.29 81.6835 110.921 82.0951L109.43 80.762ZM115.776 76.6666C115.407 77.0783 114.775 77.1136 114.364 76.7454C113.952 76.3773 113.917 75.7451 114.285 75.3334L115.776 76.6666ZM119.139 69.9049C119.507 69.4932 120.139 69.4579 120.551 69.826C120.963 70.1941 120.998 70.8263 120.63 71.238L119.139 69.9049ZM125.484 65.8094C125.116 66.2211 124.484 66.2564 124.072 65.8883C123.66 65.5202 123.625 64.888 123.993 64.4763L125.484 65.8094ZM128.848 59.0477C129.216 58.636 129.848 58.6007 130.26 58.9689C130.671 59.337 130.707 59.9692 130.338 60.3809L128.848 59.0477ZM135.193 54.9523C134.825 55.364 134.192 55.3993 133.781 55.0312C133.369 54.663 133.334 54.0308 133.702 53.6191L135.193 54.9523ZM138.556 48.1906C138.924 47.7789 139.556 47.7436 139.968 48.1117C140.38 48.4798 140.415 49.112 140.047 49.5237L138.556 48.1906ZM144.901 44.0952C144.533 44.5068 143.901 44.5422 143.489 44.174C143.078 43.8059 143.042 43.1737 143.41 42.762L144.901 44.0952ZM148.265 37.3334C148.633 36.9217 149.265 36.8864 149.677 37.2546C150.088 37.6227 150.124 38.2549 149.755 38.6666L148.265 37.3334ZM154.61 33.238C154.242 33.6497 153.609 33.685 153.198 33.3169C152.786 32.9487 152.751 32.3166 153.119 31.9049L154.61 33.238ZM157.973 26.4763C158.341 26.0646 158.973 26.0293 159.385 26.3974C159.797 26.7656 159.832 27.3977 159.464 27.8094L157.973 26.4763ZM164.318 22.3809C163.95 22.7926 163.318 22.8279 162.906 22.4597C162.495 22.0916 162.459 21.4594 162.827 21.0477L164.318 22.3809ZM0 94H3.50144V96H0V94ZM10.5043 94H17.5072V96H10.5043V94ZM24.5101 94H31.5129V96H24.5101V94ZM38.5158 94H45.5187V96H38.5158V94ZM52.5216 94H59.5244V96H52.5216V94ZM66.5273 94H73.5302V96H66.5273V94ZM80.5331 94H87.536V96H80.5331V94ZM94.5388 94H98.0403V96H94.5388V94ZM97.2948 94.3334L99.722 91.6191L101.213 92.9523L98.7857 95.6666L97.2948 94.3334ZM104.576 86.1906L109.43 80.762L110.921 82.0951L106.067 87.5237L104.576 86.1906ZM114.285 75.3334L119.139 69.9049L120.63 71.238L115.776 76.6666L114.285 75.3334ZM123.993 64.4763L128.848 59.0477L130.338 60.3809L125.484 65.8094L123.993 64.4763ZM133.702 53.6191L138.556 48.1906L140.047 49.5237L135.193 54.9523L133.702 53.6191ZM143.41 42.762L148.265 37.3334L149.755 38.6666L144.901 44.0952L143.41 42.762ZM153.119 31.9049L157.973 26.4763L159.464 27.8094L154.61 33.238L153.119 31.9049ZM162.827 21.0477L165.255 18.3334L166.745 19.6666L164.318 22.3809L162.827 21.0477Z" fill="#D2D2D2"/>
<circle r="20" transform="matrix(1 0 0 -1 168.5 20)" fill="white" fill-opacity="0.4"/>
<circle r="10" transform="matrix(1 0 0 -1 168.5 20)" fill="white"/>
</svg>
