<svg width="120" height="120" viewBox="0 0 120 120" fill="none" xmlns="http://www.w3.org/2000/svg">
<g clip-path="url(#clip0)">
<path d="M9.62715 84.0999L1.03005 92.6981C0.168483 93.5597 -0.185657 94.8059 0.0944207 95.9918C0.374264 97.1777 1.24848 98.134 2.40419 98.5193L16.7123 103.288L21.4811 117.596C21.8664 118.752 22.8227 119.626 24.0086 119.906C25.1946 120.186 26.4407 119.832 27.3023 118.97L38.3742 107.9C26.4422 103.228 16.3765 94.8096 9.62715 84.0999Z" fill="#B5179E"/>
<path d="M118.97 92.6981L110.373 84.1001C103.623 94.8099 93.5578 103.228 81.626 107.9L92.6978 118.97C93.5594 119.832 94.8056 120.186 95.9915 119.906C97.1775 119.626 98.1337 118.752 98.519 117.596L103.288 103.288L117.596 98.5193C118.752 98.134 119.626 97.1778 119.906 95.9918C120.186 94.8059 119.832 93.5595 118.97 92.6981Z" fill="#B5179E"/>
<path d="M63.6027 45.4236L60.0001 39.9971L56.3976 45.4236C55.9304 46.1269 55.2259 46.6388 54.4126 46.8657L48.1382 48.6148L52.1861 53.7176C52.7108 54.3793 52.9799 55.2073 52.9443 56.0511L52.6691 62.5585L58.7734 60.2857C59.5647 59.9911 60.4356 59.9911 61.2269 60.2857L67.3312 62.5585L67.056 56.0511C67.0204 55.2073 67.2894 54.3793 67.8142 53.7176L71.8621 48.6148L65.5876 46.8657C64.7744 46.6388 64.0696 46.1272 63.6027 45.4236Z" fill="#B5179E"/>
<path d="M60.0002 22.0938C43.2513 22.0938 29.6252 35.7198 29.6252 52.4688C31.2938 92.7653 88.7131 92.7536 90.3752 52.4685C90.3752 35.7198 76.7492 22.0938 60.0002 22.0938ZM80.662 48.8352L74.1363 57.0616L74.58 67.5522C74.6297 68.729 74.0869 69.8526 73.1339 70.5449C72.1812 71.237 70.9451 71.4065 69.8407 70.9954L60.0002 67.3316L50.1598 70.9954C49.0556 71.4065 47.8193 71.237 46.8666 70.5449C45.9136 69.8526 45.3708 68.729 45.4205 67.5522L45.8642 57.0616L39.3384 48.8352C38.6063 47.9123 38.3852 46.6841 38.749 45.5638C39.113 44.4435 40.0139 43.5801 41.1485 43.2637L51.2637 40.4439L57.071 31.6959C58.4131 29.6151 61.5872 29.6158 62.929 31.6959L68.7363 40.4439L78.8515 43.2637C79.9861 43.5801 80.887 44.4435 81.251 45.5638C81.6152 46.6844 81.394 47.9125 80.662 48.8352Z" fill="#B5179E"/>
<path d="M112.469 52.4688C112.469 23.5373 88.9313 0 60.0001 0C-9.60698 2.88211 -9.58658 102.066 60.0005 104.938C88.9313 104.937 112.469 81.4001 112.469 52.4688ZM60.0001 89.8751C39.3741 89.8751 22.5938 73.0948 22.5938 52.4688C24.6486 2.84438 95.3593 2.85867 97.4066 52.4691C97.4063 73.0948 80.626 89.8751 60.0001 89.8751Z" fill="#B5179E"/>
</g>
<defs>
<clipPath id="clip0">
<rect width="120" height="120" fill="white"/>
</clipPath>
</defs>
</svg>
