<svg width="120" height="120" viewBox="0 0 120 120" fill="none" xmlns="http://www.w3.org/2000/svg">
<path d="M17.1551 30.6014C17.1551 27.0353 18.5718 23.6151 21.0935 21.0935C23.6151 18.5718 27.0353 17.1551 30.6014 17.1551H36.7134C40.2638 17.1531 43.6694 15.7469 46.187 13.2435L50.4653 8.96509C51.7149 7.70847 53.2006 6.71125 54.8369 6.03078C56.4732 5.35031 58.2278 5 60 5C61.7722 5 63.5268 5.35031 65.1631 6.03078C66.7994 6.71125 68.2851 7.70847 69.5347 8.96509L73.813 13.2435C76.3306 15.7469 79.7362 17.1531 83.2866 17.1551H89.3985C92.9647 17.1551 96.3849 18.5718 98.9065 21.0935C101.428 23.6151 102.845 27.0353 102.845 30.6014V36.7134C102.847 40.2638 104.253 43.6694 106.757 46.187L111.035 50.4653C112.292 51.7149 113.289 53.2006 113.969 54.8369C114.65 56.4732 115 58.2278 115 60C115 61.7722 114.65 63.5268 113.969 65.1631C113.289 66.7994 112.292 68.2851 111.035 69.5347L106.757 73.813C104.253 76.3306 102.847 79.7362 102.845 83.2866V89.3985C102.845 92.9647 101.428 96.3849 98.9065 98.9065C96.3849 101.428 92.9647 102.845 89.3985 102.845H83.2866C79.7362 102.847 76.3306 104.253 73.813 106.757L69.5347 111.035C68.2851 112.292 66.7994 113.289 65.1631 113.969C63.5268 114.65 61.7722 115 60 115C58.2278 115 56.4732 114.65 54.8369 113.969C53.2006 113.289 51.7149 112.292 50.4653 111.035L46.187 106.757C43.6694 104.253 40.2638 102.847 36.7134 102.845H30.6014C27.0353 102.845 23.6151 101.428 21.0935 98.9065C18.5718 96.3849 17.1551 92.9647 17.1551 89.3985V83.2866C17.1531 79.7362 15.7469 76.3306 13.2435 73.813L8.96509 69.5347C7.70847 68.2851 6.71125 66.7994 6.03078 65.1631C5.35031 63.5268 5 61.7722 5 60C5 58.2278 5.35031 56.4732 6.03078 54.8369C6.71125 53.2006 7.70847 51.7149 8.96509 50.4653L13.2435 46.187C15.7469 43.6694 17.1531 40.2638 17.1551 36.7134V30.6014Z" fill="#B5179E"/>
<path d="M45 75L75 45" stroke="white" stroke-opacity="0.71" stroke-width="10" stroke-linecap="round" stroke-linejoin="round"/>
<path d="M47.5 50C48.8807 50 50 48.8807 50 47.5C50 46.1193 48.8807 45 47.5 45C46.1193 45 45 46.1193 45 47.5C45 48.8807 46.1193 50 47.5 50Z" fill="white" fill-opacity="0.71" stroke="white" stroke-opacity="0.71" stroke-width="10" stroke-linecap="round" stroke-linejoin="round"/>
<path d="M72.5 75C73.8807 75 75 73.8807 75 72.5C75 71.1193 73.8807 70 72.5 70C71.1193 70 70 71.1193 70 72.5C70 73.8807 71.1193 75 72.5 75Z" fill="white" fill-opacity="0.71" stroke="white" stroke-opacity="0.71" stroke-width="10" stroke-linecap="round" stroke-linejoin="round"/>
</svg>
