<svg width="32" height="32" viewBox="0 0 32 32" fill="none" xmlns="http://www.w3.org/2000/svg">
<circle cx="16" cy="16" r="16" fill="#F40000"/>
<path d="M22.9706 15.1307C22.9706 14.8204 22.9188 14.4584 22.9188 14.0446C22.8671 13.6309 22.8154 13.2172 22.7637 12.8551C22.6603 12.4414 22.5051 12.1311 22.1948 11.8725C21.9362 11.6139 21.5742 11.4588 21.2122 11.4071C20.0227 11.2519 18.2643 11.2002 15.8853 11.2002C13.5063 11.2002 11.6962 11.2519 10.5584 11.4071C10.1964 11.4588 9.83439 11.6139 9.57581 11.8725C9.31722 12.1311 9.11035 12.4414 9.00691 12.8551C8.90348 13.2172 8.85177 13.5792 8.85177 14.0446C8.80005 14.4584 8.80005 14.8204 8.80005 15.1307C8.80005 15.441 8.80005 15.803 8.80005 16.3202C8.80005 16.8374 8.80005 17.2511 8.80005 17.5097C8.80005 17.82 8.85177 18.182 8.85177 18.5958C8.90349 19.0095 8.9552 19.4232 9.00691 19.7852C9.11035 20.199 9.2655 20.5093 9.57581 20.7679C9.83439 21.0265 10.1964 21.1816 10.5584 21.2333C11.7479 21.3885 13.5063 21.4402 15.8853 21.4402C18.2643 21.4402 20.0744 21.3885 21.2122 21.2333C21.5742 21.1816 21.9362 21.0265 22.1948 20.7679C22.4534 20.5093 22.6603 20.199 22.7637 19.7852C22.8671 19.4232 22.9188 19.0612 22.9188 18.5958C22.9706 18.182 22.9706 17.82 22.9706 17.5097C22.9706 17.1994 22.9706 16.8374 22.9706 16.3202C22.9706 15.803 22.9706 15.3893 22.9706 15.1307ZM18.6263 16.7339L14.5407 19.2681C14.4889 19.3198 14.3855 19.3715 14.2821 19.3715C14.1786 19.3715 14.1269 19.3715 14.0235 19.3198C13.8683 19.2164 13.7649 19.0612 13.7649 18.8543V13.7343C13.7649 13.5275 13.8683 13.3723 14.0235 13.2689C14.1786 13.1654 14.3855 13.1654 14.5407 13.2689L18.6263 15.803C18.7815 15.9065 18.8849 16.0616 18.8849 16.2168C18.8849 16.3719 18.7815 16.6305 18.6263 16.7339Z" fill="white"/>
</svg>
